<?xml version="1.0" standalone="no"?>
<!DOCTYPE svg PUBLIC "-//W3C//DTD SVG 20010904//EN"
 "http://www.w3.org/TR/2001/REC-SVG-20010904/DTD/svg10.dtd">
<svg version="1.0" xmlns="http://www.w3.org/2000/svg"
 width="549.000000pt" height="549.000000pt" viewBox="0 0 549.000000 549.000000"
 preserveAspectRatio="xMidYMid meet">
<metadata>
Created by potrace 1.11, written by Peter Selinger 2001-2013
</metadata>
<g transform="translate(0.000000,549.000000) scale(0.100000,-0.100000)"
fill="#000000" stroke="none">
<path d="M14 4111 c0 -658 3 -1198 7 -1201 6 -4 497 -5 521 -1 4 0 8 218 7
484 0 265 0 505 0 533 l1 51 163 110 c217 148 240 160 308 166 37 3 81 -28
122 -87 43 -60 318 -465 347 -510 8 -13 62 -92 120 -176 58 -83 110 -159 115
-168 23 -36 168 -244 226 -324 l63 -86 276 0 276 0 -1 48 c-1 38 -10 62 -46
117 -24 37 -46 70 -49 73 -7 7 -29 42 -37 60 -4 8 -9 17 -12 20 -10 8 -45 63
-60 93 -8 15 -18 27 -23 27 -4 0 -8 6 -8 14 0 8 -3 16 -7 18 -9 4 -53 65 -53
73 0 3 -5 11 -10 18 -23 26 -110 159 -110 167 0 5 -3 10 -8 12 -11 4 -92 126
-92 137 0 5 -4 11 -8 13 -13 5 -432 636 -448 674 -21 49 -18 107 7 138 25 32
81 71 179 123 65 35 385 223 706 415 l102 61 -2 53 -1 54 -418 0 -419 0 -66
-37 c-37 -20 -68 -41 -70 -45 -2 -4 -8 -8 -13 -8 -5 0 -66 -32 -137 -72 -70
-39 -143 -80 -162 -91 -36 -19 -46 -25 -165 -91 -109 -61 -130 -73 -202 -113
-37 -20 -110 -61 -162 -90 -51 -29 -97 -53 -101 -53 -5 0 -10 -3 -12 -7 -2 -5
-27 -20 -56 -35 l-52 -28 -1 23 c0 12 -2 162 -2 332 l-2 310 -266 1 -265 1 0
-1196z"/>
<path d="M3695 5293 c-11 -1 -105 -4 -210 -6 -167 -3 -198 -7 -255 -27 -61
-22 -136 -59 -168 -84 -42 -32 -142 -133 -142 -143 0 -6 -4 -13 -8 -15 -5 -1
-23 -29 -40 -61 -35 -63 -63 -157 -69 -227 -5 -73 -5 -1189 1 -1257 7 -74 37
-167 79 -243 41 -74 168 -198 239 -233 32 -16 59 -27 61 -25 2 2 10 -2 18 -8
8 -6 28 -15 44 -19 17 -4 39 -10 50 -13 26 -7 1597 -11 1609 -5 4 3 25 7 45 8
51 4 165 34 215 56 51 22 120 71 159 113 49 52 113 158 137 226 21 62 36 212
24 244 -8 21 -464 20 -464 -1 0 -22 -38 -90 -65 -117 -64 -64 -20 -61 -795
-63 -678 -3 -707 -2 -747 17 -38 17 -107 79 -109 98 0 4 -6 20 -13 36 -10 26
-13 43 -11 86 1 8 1 65 1 125 -1 61 -1 119 -1 130 1 40 1 260 1 275 -1 8 -1
56 -1 105 1 106 1 90 0 235 -1 131 1 146 30 205 22 46 76 90 131 105 21 6 294
10 709 10 608 -1 680 -3 722 -18 65 -24 103 -59 132 -123 l26 -54 224 -1 c179
0 226 2 230 13 6 15 0 131 -9 182 -19 99 -111 252 -197 326 -47 40 -138 98
-138 89 0 -4 -6 -1 -14 5 -30 25 -117 42 -236 47 -121 5 -1155 11 -1195 7z"/>
<path d="M52 2512 l-52 -3 2 -922 3 -922 23 -58 c80 -196 284 -377 471 -416
38 -8 282 -11 807 -11 837 1 806 -1 951 70 56 28 74 40 138 97 36 32 91 107
112 153 45 97 51 140 54 374 0 28 2 53 5 58 3 4 1 8 -3 8 -5 0 -6 27 -3 60 3
33 3 65 0 70 -4 6 -3 33 0 60 4 28 4 50 0 50 -3 0 -3 27 0 60 3 33 3 65 0 70
-4 6 -3 33 0 60 4 28 4 50 0 50 -3 0 -3 27 0 60 3 33 3 65 0 70 -4 6 -3 33 0
60 4 28 4 50 0 50 -3 0 -3 27 0 60 3 33 3 65 0 70 -4 6 -3 33 0 60 4 28 4 50
0 50 -3 0 -3 27 0 60 3 33 3 65 0 70 -4 6 -3 33 0 60 4 28 4 50 0 50 -3 0 -3
27 0 60 3 33 3 65 0 70 -4 6 -3 33 0 60 4 28 4 50 1 50 -3 0 -6 28 -6 62 l0
63 -232 1 -233 0 -1 -820 c-1 -452 -1 -824 0 -828 4 -26 -45 -121 -76 -149
-77 -67 -42 -64 -738 -64 -627 0 -630 0 -676 22 -69 33 -120 102 -133 179 -2
16 -5 397 -5 846 l-1 817 -178 3 c-97 2 -201 2 -230 0z"/>
<path d="M4270 2513 c-25 -2 -254 -4 -510 -6 -459 -3 -489 -5 -529 -27 -12 -6
-21 -8 -21 -5 0 9 -108 -52 -150 -83 -51 -39 -160 -153 -160 -168 0 -3 -9 -19
-21 -35 -11 -16 -22 -35 -23 -42 -2 -7 -6 -21 -10 -32 -19 -49 -26 -72 -32
-100 -12 -58 -11 -263 2 -356 19 -133 19 -138 27 -145 4 -4 7 -15 7 -24 0 -35
73 -161 120 -209 70 -71 156 -117 276 -147 16 -5 377 -10 802 -11 l773 -4 52
-24 c104 -48 152 -117 151 -215 -1 -107 -51 -191 -142 -237 -35 -17 -81 -18
-732 -21 -457 -1 -713 1 -746 8 -59 12 -121 66 -140 122 l-11 33 -221 2 -222
3 4 -88 c6 -142 60 -266 157 -362 50 -49 127 -101 179 -119 107 -39 130 -40
980 -40 796 0 828 1 904 21 213 54 407 250 441 443 4 22 8 131 10 241 4 228
-4 284 -59 399 -63 133 -179 220 -354 265 -41 11 -220 24 -289 21 -48 -2 -31
-2 -668 0 -652 2 -648 1 -739 66 -92 65 -125 161 -91 262 9 28 20 51 25 51 5
0 11 8 14 18 8 24 94 80 151 97 39 12 161 15 699 15 358 0 668 -2 689 -5 88
-12 144 -53 178 -130 l18 -41 208 1 c114 1 211 3 214 3 4 1 6 41 4 90 -9 282
-209 490 -490 508 -84 6 -647 11 -725 7z"/>
</g>
</svg>
