<?xml version="1.0" standalone="no"?>
<!DOCTYPE svg PUBLIC "-//W3C//DTD SVG 20010904//EN"
 "http://www.w3.org/TR/2001/REC-SVG-20010904/DTD/svg10.dtd">
<svg version="1.0" xmlns="http://www.w3.org/2000/svg"
 width="550.000000pt" height="550.000000pt" viewBox="0 0 550.000000 550.000000"
 preserveAspectRatio="xMidYMid meet">
<metadata>
Created by potrace 1.11, written by Peter Selinger 2001-2013
</metadata>
<g transform="translate(0.000000,550.000000) scale(0.100000,-0.100000)"
fill="#000000" stroke="none">
<path d="M10 4115 l0 -1205 268 2 267 3 3 536 2 537 188 125 c103 68 202 132
221 142 67 34 132 -2 208 -114 167 -246 236 -347 243 -351 4 -3 13 -16 20 -29
7 -14 16 -30 21 -35 5 -6 37 -54 72 -106 35 -52 120 -178 189 -280 68 -102
162 -240 207 -307 l82 -123 280 0 279 0 0 58 c0 48 -4 63 -28 92 -23 27 -227
331 -277 412 -19 30 -148 223 -174 260 -14 21 -55 82 -91 137 -134 202 -211
318 -261 391 -115 169 -159 242 -159 266 0 63 51 121 155 179 220 121 324 181
520 301 44 27 92 55 107 63 15 8 37 22 47 33 11 10 23 18 26 18 4 0 42 21 86
47 l79 48 0 52 0 53 -420 0 -421 0 -77 -44 c-42 -23 -102 -57 -132 -74 -30
-16 -84 -47 -120 -67 -36 -21 -90 -51 -120 -67 -30 -17 -84 -47 -120 -68 -65
-37 -390 -218 -485 -270 -27 -15 -71 -39 -97 -54 l-48 -27 0 336 0 335 -270 0
-270 0 0 -1205z"/>
<path d="M3282 5285 c-174 -38 -344 -175 -419 -337 -59 -129 -57 -99 -61 -788
-2 -394 1 -656 7 -690 20 -111 29 -139 61 -203 74 -147 190 -247 362 -309 l63
-23 820 -3 c852 -3 889 -1 995 39 58 22 162 93 207 140 71 75 83 91 114 154
42 86 59 157 59 253 l0 82 -232 -2 -231 -3 -14 -41 c-15 -46 -67 -105 -116
-131 -30 -17 -85 -18 -747 -18 -681 0 -717 1 -750 19 -39 21 -45 27 -85 80
l-30 39 -3 555 -3 555 26 51 c28 56 68 92 123 112 29 10 185 13 728 14 l690 0
51 -25 c56 -28 99 -77 119 -134 l12 -36 231 -3 231 -2 0 82 c0 162 -51 280
-175 404 -90 91 -187 146 -297 170 -93 20 -1644 19 -1736 -1z"/>
<path d="M2 1578 l3 -943 48 -99 c60 -123 153 -221 263 -278 134 -70 102 -68
964 -68 846 0 823 -1 945 59 113 56 210 154 271 273 65 129 64 99 64 1096 l0
902 -235 0 -235 0 0 -840 c0 -691 -2 -847 -14 -874 -19 -46 -72 -104 -120
-129 -41 -22 -42 -22 -676 -22 l-636 0 -49 26 c-56 28 -109 91 -125 147 -6 24
-10 325 -10 865 l0 827 -230 0 -230 0 2 -942z"/>
<path d="M3290 2505 c-211 -52 -380 -204 -451 -405 -22 -60 -23 -81 -23 -275
-1 -224 8 -288 50 -384 53 -119 136 -198 265 -253 132 -55 174 -58 958 -58
457 0 729 -4 753 -10 108 -30 188 -132 188 -239 0 -105 -56 -183 -168 -234
l-47 -22 -705 3 c-684 3 -706 4 -748 24 -46 22 -84 65 -99 113 l-10 30 -221 3
-222 2 0 -64 c0 -36 5 -89 11 -118 36 -175 202 -354 377 -408 62 -19 94 -20
911 -20 947 0 899 -3 1051 72 147 74 271 218 314 367 22 76 23 447 1 540 -46
196 -168 319 -375 382 -75 23 -80 23 -850 29 l-775 5 -51 27 c-52 27 -103 77
-128 126 -58 113 5 264 137 323 l52 24 688 3 c447 2 701 -1 726 -8 63 -17 104
-51 135 -112 l28 -58 215 0 215 0 -4 108 c-3 105 -5 112 -47 196 -51 105 -128
187 -222 239 -127 70 -79 67 -1023 66 -678 0 -862 -3 -906 -14z"/>
</g>
</svg>
