<?xml version="1.0" standalone="no"?>
<!DOCTYPE svg PUBLIC "-//W3C//DTD SVG 20010904//EN"
 "http://www.w3.org/TR/2001/REC-SVG-20010904/DTD/svg10.dtd">
<svg version="1.0" xmlns="http://www.w3.org/2000/svg"
 width="540.000000pt" height="540.000000pt" viewBox="0 0 540.000000 540.000000"
 preserveAspectRatio="xMidYMid meet">
<metadata>
Created by potrace 1.11, written by Peter Selinger 2001-2013
</metadata>
<g transform="translate(0.000000,540.000000) scale(0.100000,-0.100000)"
fill="#000000" stroke="none">
<path d="M0 4065 l0 -1155 225 0 225 0 0 533 0 533 48 35 c26 19 81 57 122 84
41 28 77 53 80 56 3 3 48 31 100 63 l95 58 71 -4 c118 -5 106 8 408 -438 57
-85 174 -258 260 -385 85 -126 160 -235 166 -242 5 -7 10 -16 10 -22 0 -5 3
-11 7 -13 12 -5 133 -186 133 -198 0 -5 4 -10 8 -10 5 0 15 -11 22 -25 l13
-25 239 0 c137 0 238 4 238 9 0 5 -4 11 -10 13 -5 2 -100 138 -210 303 -110
165 -204 307 -210 315 -6 8 -113 170 -239 360 -126 190 -233 350 -238 355 -5
6 -28 41 -52 80 -40 63 -44 76 -44 130 1 111 41 159 213 254 63 36 158 89 210
119 52 31 104 61 115 67 11 6 39 23 62 38 24 15 47 27 53 27 5 0 10 5 10 10 0
6 4 10 10 10 8 0 92 49 166 98 10 7 27 15 37 18 9 4 17 10 17 15 0 5 4 9 10 9
5 0 38 18 72 40 l63 40 -382 0 c-376 0 -382 0 -420 -22 -21 -12 -41 -27 -45
-33 -4 -5 -8 -6 -8 -1 0 5 -6 4 -12 -2 -14 -11 -67 -41 -145 -83 -28 -15 -49
-30 -46 -33 4 -3 0 -6 -9 -6 -16 0 -201 -100 -206 -112 -2 -5 -9 -8 -15 -8 -7
0 -63 -29 -126 -65 -62 -36 -117 -65 -122 -65 -5 0 -9 -5 -9 -11 0 -5 -4 -7
-10 -4 -5 3 -10 2 -10 -3 0 -6 -11 -13 -25 -16 -14 -4 -25 -11 -25 -16 0 -6
-8 -10 -18 -10 -10 0 -23 -5 -29 -11 -6 -6 -38 -25 -71 -42 -33 -18 -105 -57
-159 -88 -55 -31 -109 -60 -121 -63 -12 -4 -22 -12 -22 -17 0 -5 -6 -9 -12 -9
-10 0 -13 78 -12 360 l2 360 -224 0 -224 0 0 -1155z"/>
<path d="M3342 5198 c-35 -4 -87 -15 -115 -24 -59 -19 -167 -75 -167 -86 0 -5
-5 -8 -11 -8 -15 0 -109 -97 -145 -150 -36 -53 -80 -156 -93 -220 -6 -26 -10
-294 -11 -640 0 -636 2 -670 51 -776 37 -79 94 -158 156 -214 65 -58 191 -123
271 -139 36 -7 307 -11 825 -11 663 0 781 2 832 15 249 65 429 265 459 513 l5
42 -188 0 -189 0 -7 -29 c-10 -46 -59 -107 -112 -138 l-48 -28 -756 0 -756 0
-49 30 c-30 19 -60 49 -79 79 l-30 49 0 601 c0 570 1 603 19 636 21 39 66 84
111 108 27 15 101 17 754 20 708 3 831 -2 831 -29 0 -5 6 -9 14 -9 22 0 85
-79 98 -122 l11 -38 188 0 187 0 -4 43 c-5 46 -42 179 -53 187 -3 3 -15 23
-26 45 -30 59 -151 176 -226 218 -58 33 -117 55 -193 74 -32 8 -1483 9 -1554
1z"/>
<path d="M0 1551 c0 -587 4 -889 11 -916 42 -160 180 -324 328 -392 127 -58
87 -56 860 -58 392 -1 732 2 755 6 22 5 52 11 66 13 14 3 61 23 105 45 169 84
294 248 327 433 11 58 13 245 12 903 -1 457 -2 833 -3 836 0 3 -83 5 -183 5
l-183 -1 -5 -850 -5 -850 -22 -41 c-12 -23 -37 -54 -55 -69 -71 -60 -42 -58
-778 -58 -659 0 -676 0 -721 20 -26 12 -50 26 -53 32 -4 6 -12 9 -17 5 -5 -3
-8 0 -7 8 2 7 -4 12 -12 10 -8 -2 -12 0 -8 4 4 4 -1 19 -11 33 -10 14 -22 37
-27 51 -4 14 -8 403 -9 865 l0 840 -183 1 -182 1 0 -876z"/>
<path d="M3388 2425 c-2 -2 -25 -6 -51 -9 -107 -15 -241 -80 -337 -164 -53
-46 -145 -176 -136 -191 4 -5 2 -11 -4 -13 -5 -1 -19 -34 -29 -73 -17 -59 -19
-96 -17 -230 3 -172 15 -233 63 -332 28 -57 119 -163 141 -163 6 0 12 -4 12
-10 0 -5 6 -10 14 -10 8 0 16 -4 18 -8 2 -5 34 -21 71 -36 138 -55 157 -56
944 -56 803 0 782 2 861 -66 22 -18 42 -31 46 -29 3 3 4 2 2 -1 -3 -3 5 -25
17 -47 19 -36 22 -58 22 -157 0 -92 -4 -122 -19 -152 -27 -56 -84 -106 -146
-129 -54 -21 -65 -21 -800 -20 -697 2 -747 3 -786 20 -52 23 -91 65 -106 113
-6 21 -14 39 -17 39 -3 1 -80 2 -170 3 -133 1 -164 -1 -169 -13 -3 -8 0 -41 7
-74 40 -193 220 -374 417 -420 48 -11 209 -14 844 -12 699 2 791 4 843 18 74
22 193 79 232 113 17 14 41 36 55 48 65 56 146 184 167 265 4 14 8 108 10 208
5 200 -4 260 -53 360 -74 150 -249 260 -447 279 -34 3 -384 7 -777 8 l-715 1
-56 26 c-66 31 -110 72 -138 128 -17 33 -21 59 -21 144 0 91 3 109 26 155 28
57 92 110 159 133 32 11 186 13 786 12 724 -1 748 -2 785 -21 50 -26 88 -68
105 -114 l13 -38 168 0 168 0 0 43 c0 103 -58 217 -163 320 -43 42 -82 75 -87
72 -5 -3 -11 -1 -15 5 -7 11 -56 34 -125 58 -39 13 -149 16 -827 17 -431 1
-784 1 -785 0z"/>
</g>
</svg>
