<?xml version="1.0" standalone="no"?>
<!DOCTYPE svg PUBLIC "-//W3C//DTD SVG 20010904//EN"
 "http://www.w3.org/TR/2001/REC-SVG-20010904/DTD/svg10.dtd">
<svg version="1.0" xmlns="http://www.w3.org/2000/svg"
 width="2134.000000pt" height="2134.000000pt" viewBox="0 0 2134.000000 2134.000000"
 preserveAspectRatio="xMidYMid meet">
<metadata>
Created by potrace 1.11, written by Peter Selinger 2001-2013
</metadata>
<g transform="translate(0.000000,2134.000000) scale(0.100000,-0.100000)"
fill="#000000" stroke="none">
<path d="M6995 20713 c-11 -3 -27 -11 -35 -18 -13 -11 -351 -204 -535 -305
-33 -18 -89 -50 -125 -70 -111 -64 -358 -203 -535 -303 -148 -82 -368 -206
-515 -289 -144 -81 -452 -255 -495 -278 -27 -15 -138 -77 -245 -137 -107 -61
-222 -125 -255 -143 -33 -18 -118 -66 -190 -105 -71 -40 -152 -85 -180 -100
-27 -15 -108 -60 -180 -100 -71 -40 -263 -146 -425 -235 -162 -90 -353 -195
-425 -235 -202 -112 -226 -125 -295 -163 -62 -34 -452 -250 -553 -306 -26 -15
-48 -23 -48 -19 -1 4 -3 631 -4 1393 -1 762 -3 1390 -4 1395 -1 7 -330 9 -968
8 -533 -1 -971 -2 -975 -2 -5 -1 -8 -2118 -8 -4705 l0 -4703 972 1 973 1 0
2159 0 2159 25 16 c14 8 27 18 30 21 3 3 30 21 60 42 30 20 125 84 210 143
487 335 925 615 1130 722 434 226 710 232 954 20 76 -65 153 -163 287 -362 62
-93 117 -171 121 -173 5 -2 8 -8 8 -13 0 -7 196 -305 210 -319 3 -3 11 -17 19
-32 8 -16 18 -28 23 -28 4 0 8 -5 8 -10 0 -6 15 -32 33 -58 60 -85 402 -596
406 -607 2 -5 7 -12 10 -15 4 -3 166 -243 361 -535 194 -291 516 -773 715
-1070 199 -297 590 -882 870 -1300 279 -418 511 -764 516 -769 8 -10 2116 -13
2125 -3 4 3 -23 50 -58 104 -66 99 -165 252 -273 421 -33 51 -102 156 -152
234 -51 77 -93 143 -93 144 0 2 -42 68 -94 146 -51 79 -150 231 -220 338 -69
107 -130 202 -136 210 -5 8 -236 354 -512 769 -277 415 -510 764 -518 777 -19
29 -567 846 -1255 1869 -577 859 -586 874 -658 1057 -57 144 -80 248 -81 368
-1 115 5 156 39 245 62 166 180 285 420 427 68 40 777 439 920 518 28 15 66
37 85 49 19 11 41 24 49 28 30 14 406 230 441 253 8 5 37 22 64 37 27 16 56
33 65 38 9 6 32 19 51 31 55 33 1048 627 1078 645 15 9 137 83 272 164 135 81
259 156 275 165 17 10 51 30 77 46 26 16 150 91 275 166 126 76 245 148 267
161 l39 24 -1709 1 c-940 0 -1718 -2 -1729 -5z"/>
<path d="M13150 20629 c-30 -4 -77 -10 -105 -13 -85 -10 -166 -23 -200 -32 -5
-1 -44 -9 -86 -18 -42 -9 -128 -33 -190 -53 -63 -20 -118 -38 -124 -39 -21 -6
-153 -63 -225 -98 -355 -171 -662 -424 -888 -730 -29 -39 -56 -75 -60 -81
-117 -155 -283 -504 -355 -745 -29 -95 -73 -277 -81 -330 -2 -19 -9 -62 -15
-95 -10 -59 -13 -81 -28 -220 -10 -91 -10 -4216 0 -4360 4 -60 9 -121 11 -135
3 -14 7 -49 10 -78 9 -79 16 -122 26 -172 5 -25 12 -61 15 -80 33 -206 167
-606 257 -765 6 -11 25 -45 41 -75 17 -30 58 -98 93 -150 258 -388 606 -664
1049 -831 100 -37 324 -100 407 -114 18 -3 40 -8 48 -10 8 -2 35 -7 60 -10 25
-3 61 -7 80 -10 58 -9 100 -13 205 -21 122 -9 5842 -8 5974 1 51 4 101 8 110
10 9 1 43 6 76 10 32 4 68 9 80 11 11 2 35 7 54 10 19 3 45 10 58 15 13 5 23
7 23 4 0 -2 15 1 33 6 17 5 44 12 59 14 43 8 235 73 328 112 280 115 540 290
756 507 135 136 188 200 288 349 181 268 320 615 366 912 6 39 13 81 15 94 12
71 27 393 18 416 -3 10 -1588 13 -1598 4 -2 -3 -9 -36 -15 -74 -33 -209 -139
-395 -290 -509 -145 -111 -329 -180 -545 -204 -79 -9 -5597 -9 -5655 0 -125
19 -260 73 -370 148 -67 45 -210 185 -210 205 0 7 -7 18 -16 26 -24 19 -80
145 -105 234 l-23 80 1 2230 0 2230 26 96 c84 317 333 557 651 626 63 14 380
16 2886 16 1548 1 2838 -2 2865 -6 323 -50 521 -183 645 -432 43 -86 65 -152
104 -316 l6 -27 813 -1 813 -2 -2 153 c-1 138 -6 214 -19 303 -3 17 -7 46 -9
65 -28 199 -104 437 -210 655 -251 513 -699 921 -1251 1140 -87 35 -262 89
-335 104 -30 6 -66 14 -80 17 -14 3 -54 9 -90 15 -36 5 -78 12 -95 15 -42 9
-6008 12 -6075 3z"/>
<path d="M13487 9444 c-1 -1 -58 -4 -127 -8 -69 -3 -134 -8 -145 -10 -11 -2
-47 -7 -80 -11 -33 -3 -89 -13 -125 -20 -37 -8 -78 -16 -92 -19 -124 -22 -343
-99 -506 -178 -356 -172 -648 -433 -873 -783 -23 -36 -47 -77 -114 -200 -50
-93 -141 -328 -184 -480 -22 -77 -66 -285 -75 -355 -3 -25 -8 -58 -11 -75 -34
-191 -38 -621 -9 -854 5 -38 34 -204 48 -268 12 -58 60 -222 83 -287 36 -102
113 -278 129 -297 8 -8 14 -19 14 -24 0 -27 197 -332 249 -387 9 -9 27 -31 41
-50 41 -55 240 -251 325 -320 228 -185 493 -331 770 -424 81 -27 292 -80 350
-88 22 -3 60 -8 85 -11 25 -3 59 -8 75 -11 36 -7 1236 -13 3690 -18 985 -3
1808 -7 1830 -10 22 -4 51 -8 65 -11 14 -3 35 -7 46 -9 137 -26 325 -134 445
-255 132 -134 248 -344 275 -498 3 -15 9 -43 14 -62 18 -67 9 -283 -15 -389
-83 -349 -308 -652 -579 -782 -146 -69 -173 -72 -601 -72 -1780 2 -3975 1
-4455 -2 -593 -3 -678 0 -830 30 -256 51 -401 224 -470 556 -6 32 -14 59 -18
59 -4 1 -361 2 -794 3 -520 1 -789 -2 -791 -9 -6 -16 0 -234 7 -295 28 -229
84 -421 181 -617 230 -466 637 -829 1170 -1046 99 -40 256 -93 302 -102 10 -2
18 -4 18 -5 0 -2 9 -4 130 -30 55 -12 111 -23 125 -25 35 -4 121 -16 145 -20
104 -15 596 -18 2970 -18 2705 0 2945 2 3102 27 15 2 62 10 103 16 41 7 113
21 160 32 47 11 92 21 100 23 8 2 53 15 100 30 612 193 1056 597 1317 1200 52
120 131 387 157 528 2 15 7 35 10 45 2 9 7 37 10 62 3 25 8 54 10 65 2 11 7
49 11 85 3 36 8 76 10 90 8 51 18 269 18 390 0 259 -23 512 -63 700 -5 25 -12
56 -14 70 -14 85 -69 270 -122 408 -136 355 -369 680 -639 895 -33 26 -65 52
-72 57 -6 5 -49 34 -95 64 -349 226 -746 348 -1248 383 -36 2 -1251 6 -2700 7
-1449 1 -2664 6 -2700 10 -490 58 -826 373 -885 831 -8 64 -8 235 0 305 42
369 194 637 460 811 132 87 285 145 440 167 70 9 5245 9 5327 -1 72 -9 232
-49 282 -71 17 -8 38 -17 46 -20 49 -21 135 -80 183 -126 107 -100 194 -261
222 -412 4 -21 10 -39 14 -39 7 -2 1452 -9 1491 -8 14 0 46 1 73 2 42 1 47 3
47 23 0 13 -4 33 -9 46 -5 13 -12 46 -15 73 -11 82 -26 173 -31 187 -2 7 -7
24 -9 38 -48 259 -212 614 -409 885 -265 364 -671 672 -1062 805 -168 56 -142
49 -305 82 l-105 21 -2948 1 c-1622 1 -2949 0 -2950 0z"/>
<path d="M5 6103 c3 -1830 8 -3338 10 -3352 1 -14 6 -50 10 -80 4 -30 8 -61
10 -70 27 -127 38 -169 65 -246 48 -141 169 -377 265 -520 409 -608 1035
-1054 1634 -1163 90 -16 281 -17 3041 -17 1620 0 2977 3 3015 7 103 11 190 27
280 50 44 11 90 22 102 24 55 10 274 98 393 158 497 248 907 674 1125 1167 43
97 111 297 119 350 3 20 8 42 10 50 6 17 14 59 22 114 3 22 8 51 12 65 3 14 7
1547 8 3408 l2 3382 -818 0 -819 0 0 -3182 c0 -1751 -3 -3205 -6 -3233 -21
-174 -90 -355 -175 -459 -92 -113 -216 -198 -356 -245 -172 -58 -194 -59
-1064 -61 -1215 -3 -4184 0 -4370 4 -163 4 -268 19 -370 53 -320 108 -514 370
-547 743 -4 41 -7 1494 -8 3228 l0 3152 -798 0 -799 0 7 -3327z"/>
</g>
</svg>
