<?xml version="1.0" encoding="UTF-8" standalone="no"?>
<svg
   xmlns:dc="http://purl.org/dc/elements/1.1/"
   xmlns:cc="http://creativecommons.org/ns#"
   xmlns:rdf="http://www.w3.org/1999/02/22-rdf-syntax-ns#"
   xmlns:svg="http://www.w3.org/2000/svg"
   xmlns="http://www.w3.org/2000/svg"
   xmlns:sodipodi="http://sodipodi.sourceforge.net/DTD/sodipodi-0.dtd"
   xmlns:inkscape="http://www.inkscape.org/namespaces/inkscape"
   id="Layer_1"
   data-name="Layer 1"
   viewBox="0 0 549.17889 513.12915"
   version="1.1"
   sodipodi:docname="kcus_square_thick.svg"
   width="549.17889"
   height="513.12915"
   inkscape:version="0.92.2 5c3e80d, 2017-08-06">
  <metadata
     id="metadata19">
    <rdf:RDF>
      <cc:Work
         rdf:about="">
        <dc:format>image/svg+xml</dc:format>
        <dc:type
           rdf:resource="http://purl.org/dc/dcmitype/StillImage" />
      </cc:Work>
    </rdf:RDF>
  </metadata>
  <sodipodi:namedview
     pagecolor="#ffffff"
     bordercolor="#666666"
     borderopacity="1"
     objecttolerance="10"
     gridtolerance="10"
     guidetolerance="10"
     inkscape:pageopacity="0"
     inkscape:pageshadow="2"
     inkscape:window-width="1323"
     inkscape:window-height="726"
     id="namedview17"
     showgrid="false"
     inkscape:zoom="0.42142857"
     inkscape:cx="280"
     inkscape:cy="233.12918"
     inkscape:window-x="0"
     inkscape:window-y="0"
     inkscape:window-maximized="0"
     inkscape:current-layer="Layer_1" />
  <defs
     id="defs4">
    <style
       id="style2">.cls-1{fill:#929497;}.cls-2{fill:#4c80bf;}</style>
  </defs>
  <title
     id="title6">kcus_square_thick</title>
  <path
     class="cls-1"
     d="m 0,280 h 46 v 159.7 c 0,17 9.82,27.19 26.89,27.26 q 55,0.21 110,0 c 16.19,0 26.15,-10.2 26.15,-26.27 V 280.41 h 47 v 177.86 c 0,31.8 -27,54.73 -58.9,54.73 H 58.16 C 31.73,513 2.29,484.52 0,458.27 Z"
     id="path8"
     inkscape:connector-curvature="0"
     style="fill:#929497" />
  <path
     class="cls-1"
     d="m 281.3,452.26 h 44 c 3.29,14.48 13.62,17.09 26.65,16.88 30,-0.46 60,-0.14 90,-0.14 12.39,0 24.79,0.35 37.16,-0.09 14.42,-0.52 24.29,-12.12 23.92,-27.26 C 502.72,430 490.33,419 477.36,419 c -45.83,0 -91.66,0 -137.49,0 -30.49,0 -51.87,-15.44 -56.95,-45.1 -4.42,-25.86 -6.3,-52.85 14.39,-74.32 11.29,-11.72 25.38,-19.29 41.91,-19.42 52.33,-0.39 104.66,-0.14 157,-0.14 32.65,0 56.92,28 52.28,60.68 h -42.74 c -4,-16.06 -16.17,-17.92 -30.3,-17.8 -39.32,0.34 -78.66,0.12 -118,0.12 -17,0 -30.54,11.63 -30.46,26.06 0.07,13.39 14.19,24.94 30.5,24.94 43.83,0 87.67,-0.37 131.49,0.11 36.22,0.41 61.31,19.32 60.12,59.77 -0.57,19.27 2.17,38.92 -12.09,55.2 -12.29,14.05 -27.21,23.55 -46,23.74 -51.49,0.52 -103,0.18 -154.48,0.18 -33.6,-0.02 -58.01,-26.6 -55.24,-60.76 z"
     id="path10"
     inkscape:connector-curvature="0"
     style="fill:#929497" />
  <path
     class="cls-2"
     d="m 54.85,133.56 v 107 H 1.36 V 0.3 h 53.4 V 67.15 C 76.68,54.98 97.76,43.32 118.85,31.56 137.1,21.37 155.28,11.06 173.51,0.85 A 7,7 0 0 1 176.78,0 c 27.15,0 54.29,0 81.83,0 v 11 c -24.24,14.33 -49.14,29.1 -74.09,43.78 -5.76,3.39 -11.83,6.26 -17.49,9.79 -11.22,7 -12.28,14.12 -3.56,27.24 20.36,30.65 41,61.11 61.48,91.67 10,14.91 22.11,32.83 31.62,48 v 9.43 h -55.15 c -10.65,-13.47 -61.83,-89.45 -88,-128 -6.23,-9.18 -13.47,-9.73 -26.06,-1.53 -10.87,7.06 -21.36,14.56 -32.51,22.18 z"
     id="path12"
     inkscape:connector-curvature="0"
     style="fill:#4c80bf" />
  <path
     class="cls-2"
     d="M 548.53,68.67 H 503.06 C 497.62,53.5 491.14,49 475.06,49 H 351.59 C 337.24,49 328,58.31 328,72.74 v 97 A 21.93,21.93 0 0 0 350.25,192 c 43.16,0.05 86.31,0.18 129.46,-0.08 12.59,-0.08 19.93,-7.67 23,-19.64 h 45.58 c 5.11,24.35 -12.43,54.45 -36.76,61.7 a 108,108 0 0 1 -29.3,4.82 c -46.81,0.49 -93.63,0.22 -140.45,0.22 A 61.89,61.89 0 0 1 280,177.32 q 0,-56.74 0,-113.47 C 280,30.05 308,2 341.61,2 h 149 c 34.05,0 62.39,32.46 57.92,66.67 z"
     id="path14"
     inkscape:connector-curvature="0"
     style="fill:#4c80bf" />
</svg>
