<svg id="Layer_1" data-name="Layer 1" xmlns="http://www.w3.org/2000/svg" viewBox="0 0 540 503.81"><defs><style>.cls-1{fill:#4f8ac7;}.cls-2{fill:#949698;}</style></defs><title>kcus_square</title><path class="cls-1" d="M541,78H503.66c-4.2-16.42-15.92-20.33-31.41-20.15-42.64.49-85.3.16-127.94.18C328.29,58,319,67.44,319,83.5q0,51.72,0,103.45c0,14.05,9.66,24,23.77,24q68.22.12,136.44,0c12.1,0,20.13-6.55,24.55-20H541v2c-2.26,14.26-7.21,27.24-18,37.42C511.2,241.61,497.35,248,480.86,248q-70,0-139.93,0c-32,0-59.56-26.94-59.82-59q-.45-54.46,0-108.95c.24-31.31,27.46-58.78,58.83-59q71.2-.54,142.42,0c29.55.27,53.91,23,57.81,52.66A10.58,10.58,0,0,0,541,76Z" transform="translate(-1 -18.99)"/><path class="cls-2" d="M1,298H37.12v6.55q0,77.22,0,154.45c0,16.81,9.46,26.26,26.32,26.27H183.91c16.93,0,26.15-9.29,26.15-26.25q0-77,0-153.95v-6.38h37.06v163a60.85,60.85,0,0,1-61.28,61.08q-60.72,0-121.46,0C33.19,522.71,3.22,507.19,1,475Z" transform="translate(-1 -18.99)"/><path class="cls-1" d="M1,19.3h.89l0,230.16H1Z" transform="translate(-1 -18.99)"/><path class="cls-2" d="M282.3,471.13h33.88c3.64,13.48,13.17,17.16,26.16,17.07,44.16-.29,88.33.06,132.49.06,13.64,0,24.29-6.09,27.47-16.69,3.77-12.56,3.74-30.31-7.47-37.14-5.3-3.23-11.85-6.14-17.87-6.21-43.82-.49-87.66.12-131.49-.46a97.71,97.71,0,0,1-31.13-5.57c-21.28-7.61-29.31-25-32-46.43-4.66-37.14,12.37-65.46,46.58-75a65.86,65.86,0,0,1,17.21-2.38c46.5-.19,93-.12,139.5-.1a54.8,54.8,0,0,1,53.82,42.83c.61,2.67.42,5.52.62,8.6H506.57c-3.73-15.82-15.7-17.14-29.63-17.05-42.81.26-85.63-.32-128.44-.47-11.36,0-22.29,3.38-26.65,14.19-8.36,20.74-3.5,45.87,26.2,46.38,45,.78,90-.19,135,.39,20.06.26,38.71,6.17,49.06,25.14,4.43,8.13,6.43,18,7.61,27.35s1.37,19.22-.51,28.35c-5.82,28.29-32.15,48.55-62.2,48.67q-70.5.27-141,0C308.19,522.57,281.1,496.67,282.3,471.13Z" transform="translate(-1 -18.99)"/><path class="cls-1" d="M1.92,249.46l0-230.16H45.66V91.44c12.23-6.76,23.66-13,35-19.38Q127.3,46,173.9,19.84a7.06,7.06,0,0,1,3.25-.82c24.16,0,48.32,0,74.15,0-9.86,6.09-18.37,11.57-27.1,16.67-21,12.27-42,24.34-63.07,36.53-14.87,8.62-17.83,21.12-8.31,35.47q43.91,66.12,87.92,132.19c2.11,3.17,4.47,6.17,7.06,9.73H200.53c-11.14-16.47-22.57-33.42-34.05-50.33q-26.35-38.83-52.8-77.63c-5.39-7.91-19-10.71-27.44-5.36C72.75,124.8,59.47,133.68,46,142.47v107Z" transform="translate(-1 -18.99)"/></svg>