<svg xmlns="http://www.w3.org/2000/svg" viewBox="0 0 1110.57 325.88"><defs><style>.cls-1{fill:#898989;}.cls-2{fill:#2386cc;}.cls-3{fill:#939598;}</style></defs><title>kcus_inc</title><g id="KCUS"><path class="cls-1" d="M1057.45,1.74c26.81,0,50.21,24,53.1,50.73.12,1.12-.32-1.42,0,0h-36.43c-3.55-13.51-14.29-17.89-28.42-17.81-42.49.24-85,.08-127.48.09-19.64,0-30.45,15.23-30.51,32.55,0,17,12,28.44,30.68,28.44,43.49,0,87-.24,130.48.08,38.7,0,61,24,61,64,0,40.83-21.42,65-61,64.92-50.82,0-86.77.06-137.6,0-33.15,0-59.95-21.8-59.95-50.82h36.39c3.56,15.52,11.85,17,26.83,17,44.49-.41,89-.15,133.48-.16,14.56,0,26.1-16.44,26.1-30.94S1062.69,131,1045.69,131c-56.46,0-91.76-.22-134.42-.26-31.25,0-59.95-25.31-59.95-63.43C851.32,30.1,872.42,2,911.27,2Z" transform="translate(0 0)"/><path class="cls-2" d="M197.69,231h47c-10.32-15.9-20.31-31.58-30.62-47.06q-30.45-45.74-61.2-91.28c-11.36-16.94-10.11-30.48,3.81-38.57,12.57-7.31,25.41-14.17,37.94-21.53,17.66-10.38,35.15-21,54.3-32.53C223,0,197.51,0,173.56,0h0c-21.09,11.82-43.85,24.73-65,36.51-21.37,11.93-42.82,23.72-65,36V.41H0v230.2H43.34V123.68c11-7.33,21.44-14.94,32.5-21.57,18.84-11.31,28.71-10.14,38,3.54Z" transform="translate(0 0)"/><path class="cls-2" d="M493.6,172.18h35.12C528.72,201.7,506,229,468.93,229c-44.66-.16-92.66,0-137.32,0-41.74.06-61.69-27.32-61.69-66.94V68.62c0-38,24.37-66.6,63.27-66.6q69.49,0,139,0c29,0,56.56,23.2,56.08,56.63H492.38c-3-14.37-12.83-19.89-27.19-19.77-44.48.36-89,.13-133.46.13a24,24,0,0,0-24,24V169.51c0,12.66,11.34,22.66,24,22.67H465.19C480.12,192.33,491.51,185.25,493.6,172.18Z" transform="translate(0 0)"/><path class="cls-1" d="M782.71,164.39c0,16.51-9.73,26.54-26.38,26.59q-66,.18-132,0c-16.8-.05-26.65-10.33-26.65-27.07V4.29h-36c0,58.22.31,106.82.31,168.09,0,24.9,30.18,54.64,55.2,54.64q73,0,146,0c28.72,0,56.5-25.8,56.51-54.63,0-53.32,0-166,0-168.09h-37Z" transform="translate(0 0)"/><path class="cls-3" d="M597.71,6.52" transform="translate(0 0)"/><path class="cls-3" d="M816.85,174.57" transform="translate(0 0)"/><path class="cls-3" d="M884,35.7" transform="translate(0 0)"/><path class="cls-3" d="M819.71,4.29" transform="translate(0 0)"/><path class="cls-1" d="M1091.45,508.42" transform="translate(0 0)"/></g><g id="incorporated"><path class="cls-2" d="M411.76,294.17" transform="translate(0 0)"/><path class="cls-2" d="M400.23,286.15" transform="translate(0 0)"/><path class="cls-2" d="M0,325V280h5.5V325Z" transform="translate(0 0)"/><path class="cls-2" d="M97.31,305.09q4.14,6,8.19,12.26h.2q-.44-6.57-.44-13.41V280h5.53V325h-5.5L87.61,299.9q-4.59-6.57-8.19-12.26h-.2q.44,6.17.43,14.38v23H74.16V280h5.46Z" transform="translate(0 0)"/><path class="cls-2" d="M201.19,284a20.8,20.8,0,0,0-7.08,1.19,15.67,15.67,0,0,0-5.71,3.58,16.77,16.77,0,0,0-3.82,5.89,22.2,22.2,0,0,0-1.4,8.21,22.61,22.61,0,0,0,1.3,8.07,14.31,14.31,0,0,0,9.43,9,24.35,24.35,0,0,0,7.48,1.08c.75,0,1.55,0,2.39-.12s1.69-.19,2.54-.33,1.68-.32,2.49-.51a22.43,22.43,0,0,0,2.17-.62v4.85a23.13,23.13,0,0,1-4.62,1.2,34.1,34.1,0,0,1-5.39.42,29.14,29.14,0,0,1-10-1.57,19.51,19.51,0,0,1-7.3-4.5,19,19,0,0,1-4.46-7.16,30.48,30.48,0,0,1,.08-19.25,21.5,21.5,0,0,1,4.62-7.58,21,21,0,0,1,7.31-4.94,25.1,25.1,0,0,1,9.65-1.77c.95,0,1.88,0,2.8.12s1.8.19,2.64.34a22.27,22.27,0,0,1,2.35.52,15.71,15.71,0,0,1,1.85.64v4.85a36.42,36.42,0,0,0-4.47-1.13A26.61,26.61,0,0,0,201.19,284Z" transform="translate(0 0)"/><path class="cls-2" d="M317.57,302.53a28.78,28.78,0,0,1-1.47,9.4,21.76,21.76,0,0,1-4.21,7.38,19.38,19.38,0,0,1-6.6,4.83,20.84,20.84,0,0,1-8.64,1.74,21.59,21.59,0,0,1-8.86-1.74,18.9,18.9,0,0,1-6.62-4.83,21.45,21.45,0,0,1-4.14-7.38,29.32,29.32,0,0,1-1.44-9.4,28.47,28.47,0,0,1,1.49-9.45,21.83,21.83,0,0,1,4.21-7.4,19,19,0,0,1,6.6-4.83,21,21,0,0,1,8.69-1.74,21.41,21.41,0,0,1,8.81,1.74,19,19,0,0,1,6.6,4.83,21.53,21.53,0,0,1,4.14,7.4A29.55,29.55,0,0,1,317.57,302.53Zm-5.46,0a24.79,24.79,0,0,0-1.19-8,16.62,16.62,0,0,0-3.29-5.79,13.72,13.72,0,0,0-4.94-3.53,16.28,16.28,0,0,0-12.22,0,13.72,13.72,0,0,0-4.94,3.53,16.46,16.46,0,0,0-3.29,5.79,24.52,24.52,0,0,0-1.19,8,24.08,24.08,0,0,0,1.21,8,16.68,16.68,0,0,0,3.3,5.78,13.49,13.49,0,0,0,4.94,3.5,15.78,15.78,0,0,0,6.15,1.18,15.51,15.51,0,0,0,6.08-1.18,13.52,13.52,0,0,0,4.9-3.5,16.66,16.66,0,0,0,3.29-5.78A24.62,24.62,0,0,0,312.11,302.53Z" transform="translate(0 0)"/><path class="cls-2" d="M390.37,306.37V325h-5.49V280h11.68c2,0,3.65.07,5,.21a24.54,24.54,0,0,1,3.78.69,13.55,13.55,0,0,1,7.21,4.37,11.85,11.85,0,0,1,2.49,7.7,12.94,12.94,0,0,1-.88,4.88,11,11,0,0,1-2.46,3.74,13,13,0,0,1-3.79,2.6,20.49,20.49,0,0,1-4.9,1.48v.13L416.38,325h-5.49L397,306.37Zm0-21.46v16.51h5.42c1.69,0,3.13-.06,4.32-.17a16,16,0,0,0,3.2-.61,8.72,8.72,0,0,0,4.41-2.79,7.78,7.78,0,0,0,1.55-5,7.29,7.29,0,0,0-1.48-4.67,8,8,0,0,0-4-2.54,14.88,14.88,0,0,0-2.9-.54,42,42,0,0,0-4.28-.17Z" transform="translate(0 0)"/><path class="cls-2" d="M488.4,325h-5.49V280H495.4a37.52,37.52,0,0,1,5.16.33,21.92,21.92,0,0,1,4.36,1,12.5,12.5,0,0,1,6.13,4.33,11.76,11.76,0,0,1,2.08,7.09,12.88,12.88,0,0,1-1.36,6.05,11.92,11.92,0,0,1-3.95,4.36,19,19,0,0,1-6.31,2.64,36,36,0,0,1-8.43.9q-2.25,0-4.68-.21Zm0-23.55c.75.09,1.52.16,2.33.21s1.57.06,2.29.06a31.22,31.22,0,0,0,6.6-.6,13.08,13.08,0,0,0,4.45-1.77,6.9,6.9,0,0,0,2.49-2.83,8.85,8.85,0,0,0,.78-3.79,7,7,0,0,0-1.26-4.31,7.73,7.73,0,0,0-3.59-2.56,14,14,0,0,0-3.34-.76,37.6,37.6,0,0,0-4.38-.22H488.4Z" transform="translate(0 0)"/><path class="cls-2" d="M619.76,302.53a28.78,28.78,0,0,1-1.47,9.4,21.59,21.59,0,0,1-4.21,7.38,19.38,19.38,0,0,1-6.6,4.83,20.84,20.84,0,0,1-8.64,1.74,21.59,21.59,0,0,1-8.86-1.74,18.9,18.9,0,0,1-6.62-4.83,21.62,21.62,0,0,1-4.14-7.38,29.32,29.32,0,0,1-1.44-9.4,28.73,28.73,0,0,1,1.49-9.45,21.83,21.83,0,0,1,4.21-7.4,19.19,19.19,0,0,1,6.6-4.83,21,21,0,0,1,8.69-1.74,21.38,21.38,0,0,1,8.81,1.74,19,19,0,0,1,6.6,4.83,21.36,21.36,0,0,1,4.14,7.4A29.55,29.55,0,0,1,619.76,302.53Zm-5.46,0a24.52,24.52,0,0,0-1.19-8,16.46,16.46,0,0,0-3.29-5.79,13.72,13.72,0,0,0-4.94-3.53,16.28,16.28,0,0,0-12.22,0,13.72,13.72,0,0,0-4.94,3.53,16.62,16.62,0,0,0-3.29,5.79,24.79,24.79,0,0,0-1.19,8,24.08,24.08,0,0,0,1.21,8,16.84,16.84,0,0,0,3.3,5.78,13.49,13.49,0,0,0,4.94,3.5,15.86,15.86,0,0,0,6.15,1.18,15.47,15.47,0,0,0,6.08-1.18,13.52,13.52,0,0,0,4.9-3.5,16.51,16.51,0,0,0,3.29-5.78A24.36,24.36,0,0,0,614.3,302.53Z" transform="translate(0 0)"/><path class="cls-2" d="M692.56,306.37V325h-5.49V280h11.68c2,0,3.65.07,5,.21a24.54,24.54,0,0,1,3.78.69,13.51,13.51,0,0,1,7.21,4.37,11.85,11.85,0,0,1,2.49,7.7,12.94,12.94,0,0,1-.88,4.88,11,11,0,0,1-2.46,3.74,12.88,12.88,0,0,1-3.79,2.6,20.35,20.35,0,0,1-4.9,1.48v.13L718.57,325h-5.49L699.2,306.37Zm0-21.46v16.51H698c1.68,0,3.12-.06,4.31-.17a16,16,0,0,0,3.2-.61,8.72,8.72,0,0,0,4.41-2.79,7.72,7.72,0,0,0,1.55-5,7.23,7.23,0,0,0-1.48-4.67,8,8,0,0,0-4-2.54,14.74,14.74,0,0,0-2.9-.54,42,42,0,0,0-4.28-.17Z" transform="translate(0 0)"/><path class="cls-2" d="M780.56,325,798.92,280h4.75L822,325h-6l-5.39-13.57H791.83L786.45,325ZM801.24,287q-3,8.42-5.76,15.3l-1.68,4.24h14.94L807,302.26q-2.78-7-5.65-15.3Z" transform="translate(0 0)"/><path class="cls-2" d="M898.6,325h-5.49V284.91H878.05v-5h35.61v5H898.6Z" transform="translate(0 0)"/><path class="cls-2" d="M983.43,320.08h23.11V325h-28.6V280h27.36v5H983.43v14.55h19.44v5H983.43Z" transform="translate(0 0)"/><path class="cls-2" d="M1109.7,302.29a27.25,27.25,0,0,1-1,7.41,19.89,19.89,0,0,1-3,6.25,19.38,19.38,0,0,1-4.91,4.81,23.55,23.55,0,0,1-6.89,3.13,27.6,27.6,0,0,1-4.89.89c-1.75.17-3.65.25-5.69.25h-10.21V280h10.31c2,0,3.94.08,5.69.25a27.6,27.6,0,0,1,4.89.89,24,24,0,0,1,6.89,3.1,19,19,0,0,1,4.88,4.7,19.63,19.63,0,0,1,2.9,6.1A26.65,26.65,0,0,1,1109.7,302.29Zm-5.46,0q0-6.5-2.87-10.54a15.31,15.31,0,0,0-8.22-5.73,22.43,22.43,0,0,0-4.58-.88c-1.68-.15-3.58-.23-5.7-.23h-4.2v35.17h4.2c2.12,0,4-.08,5.7-.23a22.43,22.43,0,0,0,4.58-.88,15,15,0,0,0,8.22-5.9Q1104.25,308.87,1104.24,302.29Z" transform="translate(0 0)"/></g></svg>