<svg id="Layer_1" data-name="Layer 1" xmlns="http://www.w3.org/2000/svg" viewBox="0 0 512 512"><defs><style>.cls-1{fill:#2386cc;}.cls-2{fill:#898989;}</style></defs><title>kcus_square</title><path class="cls-1" d="M216.08,14.93c-16.43,0-32,0-47.13,0h-.67l-.13.07a2.48,2.48,0,0,0-1.45.81L141.48,30c-12,6.75-24.36,13.73-36,20.25C91.23,58.19,77.28,65.9,62.51,74.05L46.87,82.69V15.32H0V241.11H46.66V137.41c2.9-1.95,5.8-3.94,8.6-5.87,7.24-5,14.07-9.65,21.31-14,16.79-10.07,24.81-9.43,33,2.64l81.17,121.29h51.08l-2.56-3.94q-4.63-7.14-9.2-14.21c-6.57-10.18-13.37-20.71-20.18-30.93-14-21-28.27-42.26-42.09-62.83l-16.59-24.69c-5.72-8.53-7.92-15.94-6.52-22,1.05-4.54,4.19-8.36,9.34-11.35,5.64-3.28,11.44-6.52,17-9.65,6.36-3.56,12.94-7.23,19.34-11C202.17,44,213.77,37,226.05,29.57l16.43-9.89L250.37,15h-9.21Z"/><path class="cls-1" d="M473.61,180l-.35,2.15c-1.72,10.81-11,17.18-24.71,17h-128c-11.1,0-20.48-8.79-20.48-19.18V77.91a20.51,20.51,0,0,1,20.48-20.48c12.05,0,24.1,0,36.16,0,30.09,0,61.21.09,91.82-.17,13.58-.08,21.1,5.27,23.54,16.93l.43,2h39l0-2.51a55.21,55.21,0,0,0-15.88-39.88,57.16,57.16,0,0,0-40.41-17h0q-41.19,0-82.36,0H322c-37.21,0-63.2,27.31-63.2,66.41v89.59c0,21.62,6.11,39.16,17.69,50.72,10.64,10.63,25.4,16,43.86,16h.14c14.62,0,29.62,0,44.74,0,28.87,0,58.71-.08,86.91,0h0c17.5,0,32.65-6,43.79-17.39A56.26,56.26,0,0,0,512,182.54V180Z"/><path class="cls-2" d="M451.91,372.25c-28-.22-56.52-.17-84.07-.12q-18.19,0-36.4,0c-15.66,0-25.78-9.31-25.79-23.73.07-19,12.92-27.54,25.63-27.54l33.27,0c27.67,0,56.29.06,84.43-.1,13.63-.09,21.14,4.55,23.77,14.56l.5,1.89h34.43a2.71,2.71,0,0,0,1.51.24,2.79,2.79,0,0,0,.75-.24H512l-.67-2.95a57.43,57.43,0,0,0-17-34.07c-9.83-9.6-22.1-14.89-34.56-14.89h-.67l0,0c-3,.06-21.39.23-134.23.18-35.16,0-57.87,24.68-57.87,62.87s29.42,61.09,57.87,61.12c16.4,0,31.63.06,47.59.11,22.66.06,46.09.13,76.49.13,14.65,0,23.72,12.49,23.72,24.07,0,11.8-9.62,26.05-21.56,26.05q-17.48,0-34.88,0c-29,0-58.91-.09-88.34.19-13.62,0-19.45-1.24-22.31-13.73l-.44-2H267v2.53c0,27.73,25.42,49.46,57.86,49.46,18.5,0,34.84,0,50.74,0l59.92,0H452c18.75,0,33.44-5.6,43.66-16.63,10-10.85,15.13-26.28,15.13-45.86C510.77,395.28,488.76,372.25,451.91,372.25Z"/><path class="cls-2" d="M243.05,285.85H203.86V436.14c0,13.95-8,22-21.81,22-44.09.12-83.91.12-121.73,0-14,0-22.07-8.22-22.07-22.45V285.85H0v2.53c0,26.52.07,50.34.14,75.56.07,25.05.14,50.95.14,79.58,0,24.25,29,53,53.45,53h79.85q27.4,0,54.82,0c28.6,0,54.65-25.26,54.65-52.94,0-45,0-135.93,0-152.53Z"/></svg>